<?xml version="1.0" standalone="no"?>
<!DOCTYPE svg PUBLIC "-//W3C//DTD SVG 1.1//EN" "http://www.w3.org/Graphics/SVG/1.1/DTD/svg11.dtd" >
<svg xmlns="http://www.w3.org/2000/svg">
<metadata>
Created by FontForge 20120731 at Wed May 10 20:24:32 2017
 By admin
</metadata>
<defs>
<font id="iconfont" horiz-adv-x="1024" >
  <font-face 
    font-family="iconfont"
    font-weight="500"
    font-stretch="normal"
    units-per-em="1024"
    panose-1="2 0 6 3 0 0 0 0 0 0"
    ascent="896"
    descent="-128"
    x-height="792"
    bbox="-3 -200 1320 968"
    underline-thickness="0"
    underline-position="0"
    unicode-range="U+0078-E78F"
  />
<missing-glyph 
 />
    <glyph glyph-name=".notdef" 
 />
    <glyph glyph-name=".notdef" 
 />
    <glyph glyph-name=".null" horiz-adv-x="0" 
 />
    <glyph glyph-name="nonmarkingreturn" horiz-adv-x="341" 
 />
    <glyph glyph-name="x" unicode="x" horiz-adv-x="1001" 
d="M281 543q-27 -1 -53 -1h-83q-18 0 -36.5 -6t-32.5 -18.5t-23 -32t-9 -45.5v-76h912v41q0 16 -0.5 30t-0.5 18q0 13 -5 29t-17 29.5t-31.5 22.5t-49.5 9h-133v-97h-438v97zM955 310v-52q0 -23 0.5 -52t0.5 -58t-10.5 -47.5t-26 -30t-33 -16t-31.5 -4.5q-14 -1 -29.5 -0.5
t-29.5 0.5h-32l-45 128h-439l-44 -128h-29h-34q-20 0 -45 1q-25 0 -41 9.5t-25.5 23t-13.5 29.5t-4 30v167h911zM163 247q-12 0 -21 -8.5t-9 -21.5t9 -21.5t21 -8.5q13 0 22 8.5t9 21.5t-9 21.5t-22 8.5zM316 123q-8 -26 -14 -48q-5 -19 -10.5 -37t-7.5 -25t-3 -15t1 -14.5
t9.5 -10.5t21.5 -4h37h67h81h80h64h36q23 0 34 12t2 38q-5 13 -9.5 30.5t-9.5 34.5q-5 19 -11 39h-368zM336 498v228q0 11 2.5 23t10 21.5t20.5 15.5t34 6h188q31 0 51.5 -14.5t20.5 -52.5v-227h-327z" />
    <glyph glyph-name="konggouwuche" unicode="&#xe603;" 
d="M328 28q19 0 36 -7t29.5 -19.5t20 -29.5t7.5 -36t-7.5 -36t-20 -29.5t-29.5 -20t-36 -7.5q-20 0 -37 7.5t-29.5 20t-20 29.5t-7.5 36t7.5 36t20 29.5t29.5 19.5t37 7zM744 26q19 0 36.5 -7t30 -19.5t20 -29.5t7.5 -36t-7.5 -36t-20 -29.5t-30 -20t-36.5 -7.5t-36 7.5
t-29.5 20t-20 29.5t-7.5 36t7.5 36t20 29.5t29.5 19.5t36 7zM912 594q28 0 43.5 -7.5t22 -18.5t6 -23.5t-3.5 -21.5t-13 -37t-21.5 -61.5t-23 -66.5t-18.5 -52q-13 -40 -32.5 -55.5t-48.5 -15.5h-525l14 -90h505q48 0 48 -41q0 -20 -9.5 -35t-37.5 -14h-524q-20 0 -33.5 9
t-22.5 23.5t-14.5 31.5t-8.5 32q-1 6 -5.5 29t-11 57.5t-14.5 77t-16 85.5q-19 101 -43 225h-75q-15 0 -25 7.5t-16.5 18t-9 22.5t-2.5 22q0 20 13.5 33t36.5 12h101q20 0 32 -6t19 -15t10 -18.5t5 -16.5q2 -8 4 -22.5t4 -29.5q3 -18 6 -38h684v0zM875 505l-626 2l35 -181
l523 -1z" />
    <glyph glyph-name="sousuoguanbianniu" unicode="&#xe61a;" 
d="M512 748q-91 0 -174 -35.5t-143 -95.5t-95.5 -143t-35.5 -174t35.5 -174t95.5 -143t143 -95.5t174 -35.5t174 35.5t143 95.5t95.5 143t35.5 174t-35.5 174t-95.5 143t-143 95.5t-174 35.5zM693 164q9 -9 9 -22.5t-9 -22.5t-22.5 -9t-22.5 9l-136 136l-136 -136
q-9 -9 -22.5 -9t-22.5 9t-9 22.5t9 22.5l136 136l-136 136q-9 9 -9 22.5t9 22.5t22.5 9t22.5 -9l136 -136l136 136q9 9 22.5 9t22.5 -9t9 -22.5t-9 -22.5l-136 -136z" />
    <glyph glyph-name="charge" unicode="&#xe62b;" 
d="M875 725h-726q-47 0 -80 -33.5t-33 -80.5v-454q0 -47 33 -80.5t80 -33.5h726q47 0 80 33.5t33 80.5v454q0 47 -33 80.5t-80 33.5zM955 141q0 -20 -22 -42t-42 -22h-758q-20 0 -42 22t-22 42v203h886v-203zM955 376h-886v152q5 -9 15 -9h871v-143zM955 551h-871
q-10 0 -15 -9v85q0 20 22 42t42 22h758q20 0 42 -22t22 -42v-76zM147 186h64q6 0 10.5 4.5t4.5 11t-4.5 11t-10.5 4.5h-64q-7 0 -11.5 -4.5t-4.5 -11t4.5 -11t11.5 -4.5zM274 186h111q7 0 11.5 4.5t4.5 11t-4.5 11t-11.5 4.5h-111q-7 0 -11.5 -4.5t-4.5 -11t4.5 -11
t11.5 -4.5zM449 186h79q6 0 11 4.5t5 11t-5 11t-11 4.5h-79q-7 0 -11.5 -4.5t-4.5 -11t4.5 -11t11.5 -4.5z" />
    <glyph glyph-name="guanbianniu" unicode="&#xe628;" horiz-adv-x="1366" 
d="M152 384q0 -119 46.5 -227t124.5 -186.5t186.5 -124.5t227 -46t227 46t186.5 124.5t124 186.5t46 227t-46 227t-124 186.5t-186.5 124.5t-227 46t-227 -46t-186.5 -124.5t-124.5 -186.5t-46.5 -227zM463 658zM1010 658z" />
    <glyph glyph-name="tubiao1shipinbofang" unicode="&#xe631;" 
d="M397 138v0l-1 1zM512 732q-117 0 -217 -57.5t-157.5 -157.5t-57.5 -217t57.5 -217t157.5 -157.5t217 -57.5t217 57.5t157.5 157.5t57.5 217t-57.5 217t-157.5 157.5t-217 57.5zM512 -87q-105 0 -194 52t-141 141t-52 194t52 194t141 141t194 52t194 -52t141 -141t52 -194
t-52 -194t-141 -141t-194 -52zM699 324v0q7 -4 7 -5l-7 5q-33 22 -153 90t-125 68q-10 0 -17 -9q-5 -4 -8 -14q-1 -4 -0.5 -161t1.5 -160q2 -9 12 -15t19 -4q4 2 8 5l264 151q17 5 16 24q1 8 -4 15.5t-13 9.5zM444 179v239l208 -119z" />
    <glyph glyph-name="youjiantou" unicode="&#xe626;" 
d="M579 569.5q-6 -5.5 -6 -13t5 -13.5l144 -149h-494q-7 0 -12.5 -5.5t-5.5 -13.5t5.5 -13.5t12.5 -5.5h494l-144 -149q-5 -5 -5 -13t5.5 -13.5t13.5 -5.5t14 6l175 181q5 5 5 13t-5 13l-175 181q-6 6 -13.5 6t-13.5 -5.5zM890 534q-32 79 -93 140t-140 93q-76 31 -158.5 31
t-159.5 -31q-79 -32 -139.5 -93t-92.5 -140q-31 -76 -31 -159t31 -159q32 -79 92.5 -139.5t139.5 -93.5q77 -30 159.5 -30t158.5 30q79 33 140 93.5t93 139.5q31 76 31 159t-31 159zM770 103q-55 -54 -125 -83t-147 -29t-147 29t-124.5 83.5t-83.5 124.5t-29 147t29 147
t83.5 124.5t124.5 83.5t147 29t147 -29t124.5 -83.5t83.5 -124.5t29 -147t-29 -147t-83 -125v0z" />
    <glyph glyph-name="shipinbofang" unicode="&#xe60b;" 
d="M512 725q-89 0 -170 -34.5t-139.5 -93t-93 -139.5t-34.5 -170t34.5 -170t93 -139.5t139.5 -93t170 -34.5t170 34.5t139.5 93t93 139.5t34.5 170t-34.5 170t-93 139.5t-139.5 93t-170 34.5zM511.5 -76q-98.5 0 -182.5 49t-133 133t-49 183t49 183t133 132.5t182.5 48.5
t182.5 -48.5t133 -132.5t49 -183t-49 -183t-133 -133t-182.5 -49zM696 307v0l-292 168q-6 4 -13 4q-10 0 -17 -7t-7 -17v-338q0 -10 7 -17t17 -7q7 0 13 4l293 169q11 7 11 20q0 14 -12 21z" />
    <glyph glyph-name="shuaxin2" unicode="&#xe64d;" 
d="M962 460q-12 9 -28 7t-25 -13l-14 -18q-1 9 -3 19q-31 149 -149 246t-269 97q-44 0 -88 -9q-114 -24 -198.5 -101t-120.5 -185.5t-13 -223.5q31 -149 149.5 -245.5t269.5 -96.5q44 0 87 9q123 25 212 115l2 2q4 3 3 3l2 3q5 8 5 17q0 14 -10 24t-24 10q-7 0 -13 -3l-2 1
l-9 -9q-76 -76 -179 -97q-36 -8 -73 -8q-126 0 -225 81t-125 206q-20 96 10 187t101 155t166 84q37 8 74 8q126 0 225 -81t124 -206q1 -4 2 -7l-15 12q-12 9 -27.5 7.5t-24.5 -13.5q-10 -12 -8.5 -27.5t13.5 -24.5l84 -68v0l4 -3h1q10 -6 22 -5q16 2 26 14l67 84
q9 12 7.5 27.5t-13.5 25.5z" />
    <glyph glyph-name="dayuhao2" unicode="&#xe612;" 
d="M745 302q-1 8 -6 13l-426 426q-6 6 -15 6t-15.5 -6t-6.5 -15t7 -15l410 -411l-410 -410q-7 -7 -7 -16t6.5 -15t15.5 -6t15 6l426 426q7 7 6 17z" />
    <glyph glyph-name="xiaoyuhao" unicode="&#xe63b;" 
d="M277 302q0 8 6 13l425 426q7 6 15.5 6t15 -6t6.5 -15t-6 -15l-411 -411l411 -410q6 -7 6 -16t-6.5 -15t-15 -6t-15.5 6l-425 426q-7 7 -6 17z" />
    <glyph glyph-name="anniuguanbi" unicode="&#xe730;" 
d="M318 4q-25 0 -42.5 17.5t-17.5 42.5v640q0 25 17.5 42.5t42.5 17.5t42.5 -17.5t17.5 -42.5v-640q0 -25 -17.5 -42.5t-42.5 -17.5zM706 4q-25 0 -42.5 17.5t-17.5 42.5v640q0 25 17.5 42.5t42.5 17.5t42.5 -17.5t17.5 -42.5v-640q0 -25 -17.5 -42.5t-42.5 -17.5z" />
    <glyph glyph-name="shipinbofang1" unicode="&#xe6bb;" horiz-adv-x="1025" 
d="M512 -66q91 0 174.5 35.5t144 96t96 144t35.5 174.5t-35.5 174.5t-96 144t-144 96t-174.5 35.5t-174.5 -35.5t-144 -96t-96 -144t-35.5 -174.5t35.5 -174.5t96 -144t144 -96t174.5 -35.5zM512 -128q-104 0 -199 40.5t-163.5 109t-109 163.5t-40.5 199t40.5 199t109 163.5
t163.5 109t199 40.5t199 -40.5t163.5 -109t109 -163.5t40.5 -199t-40.5 -199t-109 -163.5t-163.5 -109t-199 -40.5v0v0zM686 385l-287 -237v482z" />
    <glyph glyph-name="yiyuanduobao" unicode="&#xe637;" 
d="M512 805q-114 0 -211 -56.5t-153.5 -153.5t-56.5 -211t56.5 -211t153.5 -153.5t211 -56.5t211 56.5t153.5 153.5t56.5 211t-56.5 211t-153.5 153.5t-211 56.5zM780 116q-52 -52 -120 -81q-71 -30 -148 -30t-148 30q-68 29 -120 81t-81 120q-30 71 -30 148t30 148
q29 68 81 120t120 81q71 30 148 30t148 -30q68 -29 120 -81t81 -120q30 -71 30 -148t-30 -148q-29 -68 -81 -120zM512 744q-98 0 -180.5 -48.5t-131 -131t-48.5 -180.5t48.5 -180.5t131 -131t180.5 -48.5t180.5 48.5t131 131t48.5 180.5t-48.5 180.5t-131 131t-180.5 48.5z
M668 263l7 -1h75l7 1v-13l-7 2h-75l-7 -2v13zM639 149h-255v29h50q27 0 27 30v347q-49 -30 -92 -40h-1l-13 23h1q93 44 158 118v0h45v-445q-2 -19 6 -27q5 -7 16 -7v0q3 0 5 1h53v-29zM769 157q-2 -1 -3 -3q-3 -1 -10 -1h-21q-10 0 -13 3q-2 2 -3 4q-2 3 -2 9v45h-12v-2
q0 -13 -3 -26q-2 -6 -5 -11t-7 -9q-11 -11 -27 -15q-2 -1 -7 -2v0l-3 8v0q8 4 14 8q12 10 16 24q3 10 3 23v2h-24l-7 -1v12l7 -1h102l7 1v-12l-7 1h-27v-39q0 -3 1 -4t4 -1h15q3 0 4 1t2 4l1 14l9 -1l-1 -21q-1 -7 -3 -10z" />
    <glyph glyph-name="shipinbofangyingpian2" unicode="&#xe78e;" 
d="M832 768h-704q-53 0 -90.5 -37.5t-37.5 -90.5v-576q0 -53 37.5 -90.5t90.5 -37.5h704q53 0 90.5 37.5t37.5 90.5v576q0 53 -37.5 90.5t-90.5 37.5zM688 324l-319 -191q-8 -5 -17 -5t-16 4q-16 9 -16 28v383q0 19 16 28t33 -1l319 -191q16 -9 16 -27.5t-16 -27.5z" />
    <glyph glyph-name="footer-7" unicode="&#xe638;" 
d="M498 178l138 312v70h-227l-1 -59l167 1l-140 -324h63zM859 670l-102 -194l136 36q18 -74 18 -128q0 -108 -53.5 -200t-145 -145t-200 -53t-200 53t-145 145t-53.5 200t53.5 200t145 145t200.5 53q68 0 131 -22q7 24 15 49q-70 25 -147 25q-92 0 -175 -35.5t-143.5 -96
t-96 -143.5t-35.5 -175t35.5 -175t96 -143.5t143.5 -96t175 -35.5t175 35.5t143.5 96t96 143.5t35.5 175q0 162 -103 286z" />
    <glyph glyph-name="dayuhao1" unicode="&#xe6ed;" 
d="M300 -94q-13 0 -22.5 9t-9.5 22.5t9 22.5l424 424l-424 424q-9 9 -9 22.5t9 22.5t22.5 9t22.5 -9l447 -446q9 -10 9 -23t-9 -23l-447 -446q-9 -9 -22 -9z" />
    <glyph glyph-name="zuojiantou" unicode="&#xe711;" 
d="M975 384q0 -95 -36.5 -180.5t-98.5 -147.5t-148 -99t-180 -37t-180 37t-148 99t-98.5 147.5t-36.5 180t36.5 180t98.5 147.5t148 99t180 37t180 -37t148 -99t98.5 -147.5t36.5 -179.5v0zM115 384q0 -108 53 -199.5t144.5 -145t199.5 -53.5t199.5 53.5t144.5 145t53 199
t-53 199t-144.5 145t-199.5 53.5t-199.5 -53.5t-144.5 -145t-53 -198.5v0zM456 195q10 -10 24 -10t23.5 10t9.5 23q0 14 -10 24l-110 108h318q13 0 23 10t10 23.5t-10 23.5t-23 10h-316l107 107q10 10 10 23.5t-10 23t-23.5 9.5t-23.5 -9l-164 -165v0h-1q-2 -3 -5 -9
l-0.5 -1t-1.5 -1q-8 -21 8 -36l165 -164v0z" />
    <glyph glyph-name="sousuokuang" unicode="&#xe644;" 
d="M879 103l-135 127q59 85 59 189q0 91 -45 168t-123 122t-169.5 45t-169 -45t-123 -122t-45.5 -168t45.5 -168.5t123 -122t169.5 -44.5q116 0 207 70l135 -126q16 -15 37.5 -14.5t36 16.5t14 37t-16.5 36zM206 419q0 107 76 182.5t183.5 75.5t183.5 -75.5t76 -182.5
t-76 -182.5t-183.5 -75.5t-183.5 75.5t-76 182.5z" />
    <glyph glyph-name="guanbianniu1" unicode="&#xe73e;" 
d="M780 -96zM946 17l-368 367l368 368q14 13 14 32.5t-14 33.5t-33.5 14t-33.5 -14l-367 -367l-368 367q-13 14 -32.5 14t-33.5 -14t-14 -33.5t14 -32.5l367 -368l-367 -367q-14 -14 -14 -33.5t14 -33.5t33.5 -14t33.5 14l367 368l367 -368q14 -14 33.5 -14t33.5 14t14 33.5
t-14 33.5v0v0zM946 17z" />
    <glyph glyph-name="guanbianniu2" unicode="&#xe601;" 
d="M512 892q-103 0 -197 -40.5t-162 -108.5t-108.5 -162t-40.5 -197t40.5 -197t108.5 -162t162 -108.5t197 -40.5t197 40.5t162 108.5t108.5 162t40.5 197t-40.5 197t-108.5 162t-162 108.5t-197 40.5zM511.5 -28q-111.5 0 -206 55t-149.5 149.5t-55 206t55 206.5t149.5 150
t206 55t206 -55t149.5 -150t55 -206.5t-55 -206t-149.5 -149.5t-206 -55zM718 590q-17 17 -41.5 17t-41.5 -17l-123 -124l-124 124q-17 17 -41 17t-41 -17t-17 -41t17 -41l124 -124l-124 -124q-17 -17 -17 -41t17 -41t41 -17t41 17l124 124l123 -124q17 -17 41.5 -17
t41.5 17t17 41t-17 41l-124 124l124 124q17 17 17 41t-17 41z" />
    <glyph glyph-name="xuangoushouji" unicode="&#xe602;" 
d="M367 203h-88v492h321v-11h26v83q0 26 -21 26h-331q-21 0 -21 -26v-652q0 -26 21 -26h93v114zM771 638h-331q-11 0 -16 -8.5t-5 -17.5v-653q0 -25 21 -25h331q10 0 15.5 8t5.5 17v653q0 8 -7 17t-14 9zM641 -35h-77q-12 0 -19 7t-7 18.5t7 18.5t19 7h77q12 0 19 -7
t7 -18.5t-7 -18.5t-19 -7zM766 42h-321v497h321v-497z" />
    <glyph glyph-name="1yuanqitou" unicode="&#xe6f5;" 
d="M513 -34q-118 0 -213 59q-97 58 -151 155t-52.5 208t59.5 208q56 94 152.5 148.5t206.5 54.5q114 0 213 -59q71 -43 120.5 -109t69.5 -147t8 -162t-54 -154q-57 -93 -153.5 -147.5t-205.5 -54.5v0zM513 772q-102 0 -192 -51t-142 -138q-54 -91 -55 -194.5t49.5 -194.5
t140.5 -145q93 -56 199 -56q102 0 192 51t142 138q40 67 51 143t-7 152q-19 75 -65 136.5t-112 102.5q-94 56 -201 56zM513 64q-87 0 -163 45q-74 44 -115 118t-40.5 159t45.5 160q42 71 116 113t157 42q87 0 163 -45q74 -44 115.5 -118t40.5 -159t-45 -159
q-43 -73 -116.5 -114.5t-157.5 -41.5zM513 691q-81 0 -152 -40.5t-114 -109.5q-43 -72 -44 -154.5t39 -154.5t112 -115q73 -44 158 -44q81 0 152.5 40.5t113.5 109.5q43 72 44 154.5t-39 154.5t-112 115q-70 44 -158 44zM616 388h-204q-6 0 -10 4t-4 10t4 10t10 4h203
q6 0 10 -4t4 -10q0 -14 -13 -14zM616 303h-204q-6 0 -10 4t-4 10t4 10t10 4h203q6 0 10 -4t4 -10t-3.5 -10t-9.5 -4zM513.5 223q-5.5 0 -10 4.5t-4.5 10.5v163q0 5 4.5 9.5t10 4.5t9.5 -4.5t4 -9.5v-165q0 -5 -4 -9t-9.5 -4zM535 390q-5 0 -6 2q-12 7 -5 19l52 94q7 11 20 5
q11 -7 5 -19l-53 -94q-6 -7 -13 -7zM497 390q-8 0 -12 8l-53 94q-3 5 -1 10.5t6.5 8.5t10.5 1.5t9 -6.5l52 -94q3 -5 1.5 -10.5t-6.5 -8.5q-1 0 -3 -1l-3 -1.5z" />
    <glyph glyph-name="7tianwuliyoutuihuo24px" unicode="&#xe607;" 
d="M392 584h240v-44l-156 -356h-52l160 356h-192v44zM512 -56q-183 0 -311.5 128.5t-128.5 311.5t128.5 311.5t311.5 128.5q100 0 188 -44q-18 -26 -20 -36q-74 40 -168 40q-165 0 -282.5 -117.5t-117.5 -282.5t117.5 -282.5t282.5 -117.5t282.5 117.5t117.5 282.5
q0 32 -4 44l-104 16q68 168 76 180q72 -111 72 -240q0 -183 -128.5 -311.5t-311.5 -128.5z" />
    <glyph glyph-name="15tianmianfeihuanhuo24px" unicode="&#xe605;" 
d="M624 444q20 0 52 -8q24 -12 40 -28t28 -40q8 -16 8 -52q0 -28 -12 -52t-28 -40q-12 -12 -44 -28q-24 -12 -52 -12q-45 0 -72 20q-23 17 -44 52l48 16q13 -26 28 -36q18 -12 44 -12q16 0 32 8q12 4 28 20q4 4 20 28q8 24 8 36q0 16 -8 40q-4 12 -20 28q-8 8 -32 16
q-12 4 -40 4q-16 0 -40 -8q-9 -2 -22.5 -8.5t-17.5 -7.5v204h212v-44h-164v-108q16 8 24 8q8 4 24 4zM392 184h-40v360h-40l-40 40h120v-400zM512 -56q-145 0 -264 88q18 6 36 24q105 -72 228 -72q108 0 200.5 53.5t146 146t53.5 200.5t-53.5 200.5t-146 146t-200.5 53.5
t-200.5 -53.5t-146 -146t-53.5 -200.5q0 -92 44 -180q-12 -8 -28 -32q-56 100 -56 212q0 120 58.5 221.5t160 160t221.5 58.5t221.5 -58.5t160 -160t58.5 -221.5t-58.5 -221.5t-160 -160t-221.5 -58.5v0z" />
    <glyph glyph-name="520jiashouhouwangdian24px" unicode="&#xe606;" 
d="M512 -43q-2 0 -32.5 30t-75 83.5t-87.5 116.5t-73.5 140t-30.5 142q0 86 23 152.5t64 107t94.5 61.5t117.5 21t117.5 -21t94.5 -61.5t64 -107t23 -152.5q0 -65 -30.5 -142t-73.5 -140t-87.5 -116.5t-75 -83.5t-32.5 -30zM512 768q-113 0 -184.5 -81t-71.5 -239
q0 -56 26 -120.5t63 -117t75 -96.5t64 -68.5t28 -24.5t28 24.5t64 68.5t75 96.5t63 117t26 120.5q0 161 -71.5 240.5t-184.5 79.5zM512 384q-54 0 -91 37t-37 91t37 91t91 37t91 -37t37 -91t-37 -91t-91 -37zM512 597q-35 0 -60 -25t-25 -60t25 -60t60 -25t60 25t25 60
t-25 60t-60 25z" />
    <glyph glyph-name="guanbianniu3" unicode="&#xe62a;" 
d="M941 -45h-853v853h851v-853h2zM161 28h705v707h-705v-707zM724 530q12 12 0 25l-29 29q-12 12 -25 0l-138 -137q-13 -12 -25 0l-139 137q-12 12 -24 0l-29 -29q-13 -13 0 -25l138 -136q13 -12 0 -25l-138 -136q-13 -12 0 -25l29 -29q12 -12 24 0l139 137q12 12 25 0
l138 -137q13 -12 25 0l29 29q12 13 0 25l-139 136q-12 13 0 25l139 136v0z" />
    <glyph glyph-name="bofangshipin-copy" unicode="&#xe68f;" 
d="M512 834q-186 0 -318 -132t-132 -318t132 -318t318 -132t318 132t132 318t-132 318t-318 132zM512 -2q-105 0 -193.5 52t-140.5 140.5t-52 193.5t52 193.5t140.5 140.5t193.5 52t193.5 -52t140.5 -140.5t52 -193.5t-52 -193.5t-140.5 -140.5t-193.5 -52zM737 387v0.5v1
v1.5v2l-0.5 0.5l-0.5 0.5v1v1l-0.5 1l-0.5 1v0v0q-1 2 -2 3v0v0q-1 1 -2 3v0q-1 1 -1 2h-1v1q-1 0 -1 1l-1 1q-1 0 -1 1q-1 0 -2 1h-1v0l-2 2v0l-288 161q-8 4 -17 4v0h-1h-2q-6 -1 -11 -3h-0.5t-0.5 -1h-1q-8 -5 -13 -12q-6 -10 -4 -22v-310q-2 -12 4 -22q5 -7 13 -12h1
q0 -1 1 -1q6 -2 11 -3h2v0h1v0q9 0 17 4l288 161v0q1 0 1.5 0.5l0.5 0.5l1 1l1.5 1.5t1 0.5t1.5 1t1 1.5t1 0.5q1 1 1 2v0q1 1 2 3v0v0l2 2v1v0l0.5 1t0.5 1.5v0.5q0 1 0.5 1.5l0.5 0.5v1.5v1.5v1.5v0.5l1 1v2v2zM448 278v212l190 -106z" />
    <glyph glyph-name="shipinbofang2" unicode="&#xe619;" 
d="M512 834q-186 0 -318 -132t-132 -318t132 -318t318 -132t318 132t132 318t-132 318t-318 132v0zM512 -19q-109 0 -202 54t-147 147t-54 202t54 202t147 147t202 54t202 -54t147 -147t54 -202t-54 -202t-147 -147t-202 -54v0zM707 409v0q6 -4 7 -5l-7 5
q-35 23 -159.5 93.5t-130.5 70.5q-11 0 -18 -8q-5 -5 -8 -16q-1 -3 -0.5 -167t1.5 -167q3 -9 13 -15t20 -4q4 2 8 5l274 157q19 5 17 25q1 8 -4 16t-13 10v0zM441 258v249l217 -124z" />
    <glyph glyph-name="bofangshipin01" unicode="&#xe66e;" 
d="M793 693h-562q-28 0 -47.5 -19.5t-19.5 -46.5v-486q0 -27 19.5 -46.5t47.5 -19.5h562q28 0 47.5 19.5t19.5 46.5v486q0 27 -19.5 46.5t-47.5 19.5v0zM275 617h109v-44h-109v44zM612 393q5 -3 5 -9t-5 -9l-183 -83q-2 -1 -5 -1t-5 1q-5 3 -5 9v166q0 6 5 8.5t10 0.5z
M384 145h-109v50h109v-50zM574 145h-123v50h123v-50v0zM574 573h-123v44h123v-44v0zM750 145h-109v50h109v-50zM750 573h-109v44h109v-44z" />
    <glyph glyph-name="buoumaotubiao46" unicode="&#xe629;" horiz-adv-x="1026" 
d="M307.5 428q-25.5 0 -43.5 18l-170 171q-6 6 -6 14.5t6 14.5t14 6t14 -6l171 -171q6 -6 14.5 -6t14.5 6l97 96q5 6 5 14.5t-5 14.5l-171 171q-6 6 -6 14.5t6 14.5t14.5 6t14.5 -6l170 -171q18 -18 18 -43.5t-18 -43.5l-96 -96q-18 -18 -43.5 -18zM845 -59q-49 0 -83 35
l-249 249q-6 6 -6 14.5t6 14.5t14.5 6t14.5 -6l249 -249q22 -23 54 -23t54.5 22.5t22.5 54.5t-22 55l-249 249q-6 6 -6 14.5t6 14.5t14 6t14 -6l250 -249q34 -35 34 -84t-34.5 -83.5t-83.5 -34.5v0zM384 185q-63 0 -122 24t-106 71q-70 70 -88.5 169.5t21.5 190.5
q4 7 11.5 10t15.5 0t11 -11t0 -16q-36 -79 -19.5 -166t77.5 -148q67 -67 158.5 -80.5t174.5 30.5q7 4 15 1.5t12 -10t1.5 -15.5t-9.5 -12q-72 -38 -153 -38zM682 429h-4q-8 2 -13 9t-3 15q14 70 -6.5 137.5t-70.5 117.5q-62 62 -148.5 78t-166.5 -19q-8 -4 -15.5 -1t-11 11
t-0.5 16t11 11q91 40 190 21.5t170 -88.5q57 -57 80.5 -134.5t7.5 -157.5q-3 -16 -20 -16z" />
    <glyph glyph-name="sim" unicode="&#xe60a;" 
d="M459 68h106v290h-106v-290zM328 200h105v52h-105v-52zM328 331v-52h105v79h-79q-11 0 -18.5 -8t-7.5 -19zM328 94q0 -11 7.5 -18.5t18.5 -7.5h79v105h-105v-79v0zM775 805h-395q1 0 -38.5 -39.5t-79.5 -79l-40 -39.5v-658q0 -11 8 -18.5t19 -7.5h526q11 0 19 7.5t8 18.5
v790q0 11 -8 18.5t-19 7.5zM723 68q0 -11 -8 -18.5t-19 -7.5h-368q-11 0 -19 7.5t-8 18.5v553q104 105 106 105h289q11 0 19 -7.5t8 -18.5v-632zM670 358h-79v-79h105v52q0 11 -7.5 19t-18.5 8zM591 68h79q11 0 18.5 7.5t7.5 18.5v79h-105v-105zM591 200h105v52h-105v-52z
" />
    <glyph glyph-name="lipin" unicode="&#xe6bd;" 
d="M933 534q0 25 -17.5 42.5t-42.5 17.5h-42q43 43 43 103q0 44 -28 76t-86 32q-39 0 -78 -18.5t-71.5 -49t-54.5 -58t-42 -57.5q-20 29 -43 57t-55.5 58.5t-72 49t-78.5 18.5q-58 0 -86 -32t-28 -76q0 -60 44 -103h-44q-25 0 -42.5 -17.5t-17.5 -42.5v-180h61v-331
q0 -25 17.5 -42.5t42.5 -17.5h601q25 0 42.5 17.5t17.5 42.5v331h60v180v0zM760 745q54 0 54 -48q0 -47 -44 -75t-101 -28h-102q41 61 92 106t101 45v0zM265 745q50 0 102.5 -45.5t92.5 -105.5h-101q-58 0 -103 28.5t-45 75.5q0 24 13 35.5t41 11.5v0zM873 414h-331v120h331
v-120v0zM151 534h331v-120h-331v120v0zM212 354h270v-331h-270v331v0zM813 23h-271v331h271v-331v0zM813 23z" />
    <glyph glyph-name="youjiantou1" unicode="&#xe60d;" 
d="M236 419h492v-40h-492v40zM728 381l-216 216l28 28l216 -216zM770 395l-216 -217l-28 28l216 216zM61 830h908v-39h-908v39zM930 830h39v-908h-39v908zM61 830h39v-908h-39v908zM61 -39h908v-39h-908v39z" />
    <glyph glyph-name="youjiantou-copy" unicode="&#xe600;" 
d="M788 349h-492v40h492v-40zM296 387l216 -216l-28 -28l-216 216zM254 373l216 217l28 -28l-216 -216zM963 -62h-908v39h908v-39zM94 -62h-39v908h39v-908zM963 -62h-39v908h39v-908zM963 807h-908v39h908v-39z" />
    <glyph glyph-name="close" unicode="&#xe65a;" 
d="M512 830q-91 0 -173.5 -35t-142 -95t-95 -142.5t-35.5 -173.5t35.5 -173.5t95 -142.5t142 -95t173.5 -35t173.5 35t142.5 95t95.5 142.5t35.5 173.5t-35.5 173.5t-95.5 142.5t-142.5 95t-173.5 35zM735 222l-60 -61l-163 163l-162 -163l-61 61l163 162l-163 163l61 60
l162 -163l163 163l60 -60l-162 -163zM512 830q-91 0 -173.5 -35t-142 -95t-95 -142.5t-35.5 -173.5t35.5 -173.5t95 -142.5t142 -95t173.5 -35t173.5 35t142.5 95t95.5 142.5t35.5 173.5t-35.5 173.5t-95.5 142.5t-142.5 95t-173.5 35zM735 222l-60 -61l-163 163l-162 -163
l-61 61l163 162l-163 163l61 60l162 -163l163 163l60 -60l-162 -163z" />
    <glyph glyph-name="guanbihoveranniu" unicode="&#xe61b;" 
d="M512 -63q-91 0 -173.5 35.5t-142.5 95.5t-95.5 142.5t-35.5 173.5t35.5 173.5t95.5 142.5t142.5 95.5t173.5 35.5t173.5 -35.5t142.5 -95.5t95.5 -142.5t35.5 -173.5t-35.5 -173.5t-95.5 -142.5t-142.5 -95.5t-173.5 -35.5zM296 649l481 -481l-49 -49l-481 481zM728 649
l49 -49l-481 -481l-49 49z" />
    <glyph glyph-name="icon-test" unicode="&#xe611;" horiz-adv-x="1025" 
d="M0 589q0 10 7.5 17.5t18 7.5t18.5 -7l442 -443l443 443q8 7 18.5 7t18 -7.5t7.5 -18t-8 -17.5l-461 -461q-7 -8 -17.5 -8t-18.5 8l-461 461q-7 7 -7 18v0z" />
    <glyph glyph-name="closeBtn" unicode="&#xe62c;" 
d="M64 681l745 -745q31 -29 74 -29q44 0 75 31t31 75q0 43 -30 74l-744 745q-32 32 -77 32q-44 0 -75 -31t-31 -75q0 -45 32 -77v0zM215 -64l745 745q29 31 29 74q0 44 -31 75t-75 31q-43 0 -74 -30l-745 -744q-32 -32 -32 -77q0 -44 31 -75t75 -31q45 0 77 32v0z" />
    <glyph glyph-name="weixiu" unicode="&#xe6c4;" 
d="M930 132l-249 251q-6 6 -14.5 6t-14 -6t-5.5 -14.5t6 -14.5l248 -251q22 -23 22 -55t-22.5 -55t-54 -23t-54.5 23l-244 247v1q-4 7 -12 9.5t-16 -1.5q-82 -44 -173.5 -30t-157.5 80q-55 57 -74 135.5t5 153.5l148 -150q18 -18 43 -18v0v0q26 0 44 18l95 97q18 18 18 43.5
t-18 43.5l-148 150q74 24 151.5 5t133.5 -75q50 -50 70.5 -118.5t6.5 -138.5q-2 -8 3 -15t13 -9h4q16 0 20 16q16 81 -7.5 158.5t-80.5 135.5q-70 71 -169 90t-190 -22q-7 -4 -10 -12t0 -15q2 -4 5 -7l170 -172q5 -6 5 -14.5t-5 -14.5l-96 -97q-6 -6 -14.5 -6t-14.5 6
l-170 172v0v0l-1 1q-3 3 -8 4l2 -1l3 -1v0q-2 1 -2 2h-1h-0.5h-0.5q-3 1 -6 1h3h-4q-8 0 -14 -6v0v0q-4 -4 -5 -8v0l2 4v0l-1 -2q-40 -92 -22 -192t88 -171q47 -47 106 -71.5t122 -24.5q71 0 137 32l238 -242q35 -35 83 -35h1q48 0 82.5 35t34.5 84t-35 84h1z" />
    <glyph glyph-name="shipinbofang3" unicode="&#xe667;" 
d="M324 20q-37 0 -61 27t-24 68v518q0 41 24 67.5t61 26.5q26 0 52 -15l447 -259q50 -30 50 -80q0 -49 -50 -80l-447 -257q-25 -16 -52 -16z" />
    <glyph glyph-name="hongseguanbianniu" unicode="&#xe636;" 
d="M513 831q-91 0 -174 -35.5t-142.5 -95.5t-95 -143t-35.5 -174t35.5 -174t95 -143t142.5 -95t174 -35t174 35t143 95t95.5 143t35.5 174t-35.5 174t-95.5 143t-143 95.5t-174 35.5zM685 265q5 -6 5 -13.5t-5 -13.5l-27 -26q-5 -6 -13 -6t-13 6l-119 118l-118 -118
q-6 -6 -13.5 -6t-13.5 6l-26 26q-6 6 -6 13.5t6 13.5l119 118l-119 119q-6 5 -6 13t6 13l26 27q6 5 13.5 5t13.5 -5l118 -119l119 119q5 5 13 5t13 -5l27 -27q5 -5 5 -13t-5 -13l-119 -119z" />
    <glyph glyph-name="Close-Button" unicode="&#xe726;" 
d="M793 741v0q-13 12 -31 12t-31 -13t-13 -32v0v-2q0 -17 11 -29q67 -51 105 -126t38 -161q0 -98 -48 -181t-131 -131t-181 -48t-181 48t-131 131t-48 181q0 86 38 161t104 125q14 14 14 33v0v0q0 18 -13 31.5t-32 13.5q-18 0 -32 -13q-79 -63 -124 -155t-45 -197
q0 -91 35.5 -174.5t96 -143.5t143.5 -96t175 -36t175 36t143.5 96t96 143.5t35.5 174.5q0 105 -45 196.5t-123 154.5zM512 338v0q19 0 32 13t13 32v0v406v0q0 18 -13 31.5t-32 13.5t-32 -13.5t-13 -31.5v0v-406v0q0 -19 13 -32t32 -13v0z" />
    <glyph glyph-name="chongzhi" unicode="&#xe60c;" 
d="M496 59h-373q-30 0 -55 26.5t-25 61.5v378h841v-85q0 -9 5.5 -15t13.5 -6q18 0 18 21v171q0 53 -40 90.5t-93 37.5h-654q-53 0 -90.5 -37.5t-37.5 -90.5v-465q0 -52 37.5 -88t90.5 -36h362q8 0 14 4.5t6 12.5q0 9 -6 14.5t-14 5.5zM126 702h669q36 0 62.5 -27t26.5 -64
v-53h-840v53q0 32 24 61.5t58 29.5zM125 461q-13 0 -22.5 -7.5t-9.5 -17.5v-3q0 -11 9.5 -18t22.5 -7h22q14 0 23.5 7t9.5 18v2q0 11 -9.5 18t-23.5 7zM245 461q-14 0 -23.5 -7.5t-9.5 -17.5v-3q0 -11 9.5 -18t23.5 -7h22q14 0 23.5 7t9.5 18v2q0 11 -10 18t-23 7zM369 461
q-14 0 -23.5 -7.5t-9.5 -17.5v-3q0 -11 10 -18t23 -7h22q14 0 23.5 7t9.5 18v2q0 11 -9.5 18t-23.5 7zM783.5 399q-96.5 0 -165 -68.5t-68.5 -165.5q0 -96 68.5 -164.5t165.5 -68.5t165 68.5t68 164.5q0 97 -68.5 165.5t-165 68.5zM784 -31q-81 0 -138.5 57.5t-57.5 138.5
t57.5 138.5t138.5 57.5t138.5 -57.5t57.5 -138.5t-57.5 -138.5t-138.5 -57.5zM850 110q5 0 8.5 -3.5t3.5 -8.5q0 -4 -3.5 -7t-8.5 -3h-57v-39q0 -11 -13 -11q-5 0 -8 3.5t-3 7.5v39h-57q-5 0 -8.5 3t-3.5 8q0 11 12 11h57v33h-57q-12 0 -12 11q0 4 3.5 7t8.5 3h48l-50 88
q-5 10 6 15q9 4 15 -4l50 -89l50 89q6 10 16 4q5 -2 6.5 -6t-1.5 -8v1l-50 -89h48q5 0 8.5 -3t3.5 -7.5t-3.5 -8t-8.5 -3.5h-57v-33h57v0z" />
    <glyph glyph-name="chongzhi1" unicode="&#xe695;" 
d="M49 587v114q0 24 17 40.5t40 16.5h801q24 0 41 -16.5t17 -40.5v-115zM49 529v-457q0 -24 17 -41t40 -17h651q-28 21 -44.5 52t-16.5 68q0 61 43.5 104t103.5 43q38 0 70 -17.5t52 -46.5v312h-916zM364 129h-229q-12 0 -20.5 8.5t-8.5 20.5t8.5 20t20.5 8h229
q12 0 20.5 -8t8.5 -20t-8.5 -20.5t-20.5 -8.5zM421 243h-286q-12 0 -20.5 8.5t-8.5 20.5t8.5 20.5t20.5 8.5h286q12 0 20.5 -8.5t8.5 -20.5t-8.5 -20.5t-20.5 -8.5zM593 243h-57q-12 0 -20.5 8.5t-8.5 20.5t8.5 20.5t20.5 8.5h57q12 0 20.5 -8.5t8.5 -20.5t-9 -20.5
t-20 -8.5zM845 7q-52 0 -88.5 36.5t-36.5 88.5t36.5 89t88.5 37t89 -37t37 -89t-37 -88.5t-89 -36.5zM882 130v-12h-28v-16h28v-11h-28v-23h-15v23h-29v11h29v16h-29v12h25l-31 52h17q25 -48 26 -49v0q1 2 9 17l17 32h16l-31 -52h24zM845.5 235q-42.5 0 -73 -30t-30.5 -73
t30.5 -73t73 -30t72.5 30t30 73t-30 73t-72.5 30z" />
    <glyph glyph-name="guanbianniu5" unicode="&#xe6b2;" 
d="M521 377zM18 377.5q0 -102.5 40 -195.5t107.5 -160.5t160.5 -107.5t195 -40t195.5 40t160.5 107.5t107 160.5t40 195.5t-40 195.5t-107 160t-160.5 107t-195.5 40t-195 -40t-160.5 -107t-107.5 -160t-40 -195.5zM801 583l-206 -206l206 -206q14 -14 14 -36t-14.5 -37
t-36.5 -15t-37 15l-206 206l-206 -206q-14 -15 -36.5 -15t-37 15t-14.5 37t15 36l206 206l-206 206q-15 15 -15 37t14.5 36.5t37 14.5t36.5 -14l206 -206l206 206q15 14 37 14t36.5 -14.5t14.5 -36.5t-14 -37z" />
    <glyph glyph-name="bofangshipin01-copy" unicode="&#xe78f;" 
d="M853 759h-682q-34 0 -57.5 -23.5t-23.5 -56.5v-590q0 -33 23.5 -56.5t57.5 -23.5h682q34 0 57.5 23.5t23.5 56.5v590q0 33 -23.5 56.5t-57.5 23.5v0zM224 667h133v-53h-133v53zM633 394q6 -3 6 -10t-6 -10l-222 -101q-2 -2 -5.5 -2t-6.5 2q-6 3 -6 10v202q0 7 6 10.5
t12 -0.5zM357 95h-133v59h133v-59zM587 95h-149v59h149v-59v0zM587 614h-149v53h149v-53v0zM801 95h-133v59h133v-59zM801 614h-133v53h133v-53z" />
  </font>
</defs>
</svg>
